<?xml version="1.0" encoding="UTF-8"?>
<svg xmlns="http://www.w3.org/2000/svg" viewBox="0 0 258 258">
  <defs>
    <style>
      .cls-1 {
        fill: #00274c;
      }

      .cls-2 {
        fill: #ffcd05;
      }

      .cls-3 {
        fill: #ffcb05;
      }
    </style>
  </defs>
  <g id="Background">
    <rect class="cls-3" width="258" height="258"/>
  </g>
  <g id="Github_release_link" data-name="Github release link">
    <g>
      <g id="QR_Code_Bitly-_github_release" data-name="QR Code Bitly-&amp;gt;github release">
        <g id="barcode">
          <rect class="cls-1" x="83.23" y="8.32" width="8.32" height="16.65"/>
          <polygon class="cls-1" points="124.84 16.65 124.84 24.97 108.19 24.97 108.19 16.65 99.87 16.65 99.87 8.32 116.52 8.32 116.52 16.65 124.84 16.65"/>
          <rect class="cls-1" x="141.48" y="8.32" width="8.32" height="8.32"/>
          <polygon class="cls-1" points="174.77 41.61 174.77 49.94 183.1 49.94 183.1 74.9 174.77 74.9 174.77 58.26 166.45 58.26 166.45 41.61 158.13 41.61 158.13 49.94 149.81 49.94 149.81 66.58 158.13 66.58 158.13 58.26 166.45 58.26 166.45 74.9 141.48 74.9 141.48 58.26 133.16 58.26 133.16 74.9 124.84 74.9 124.84 58.26 116.52 58.26 116.52 41.61 108.19 41.61 108.19 33.29 124.84 33.29 124.84 49.94 133.16 49.94 133.16 33.29 124.84 33.29 124.84 24.97 141.48 24.97 141.48 41.61 149.81 41.61 149.81 33.29 174.77 33.29 174.77 24.97 149.81 24.97 149.81 16.65 158.13 16.65 158.13 8.32 166.45 8.32 166.45 16.65 174.77 16.65 174.77 8.32 183.1 8.32 183.1 41.61 174.77 41.61"/>
          <path class="cls-1" d="M191.42,8.32v58.26h58.26V8.32h-58.26Zm49.93,49.94h-41.61V16.65h41.61V58.26Z"/>
          <rect class="cls-1" x="24.97" y="24.97" width="24.97" height="24.97"/>
          <rect class="cls-1" x="99.87" y="24.97" width="8.32" height="8.32"/>
          <rect class="cls-1" x="208.06" y="24.97" width="24.97" height="24.97"/>
          <rect class="cls-1" x="74.9" y="41.61" width="8.32" height="8.32"/>
          <polygon class="cls-1" points="108.19 41.61 108.19 58.26 99.87 58.26 99.87 74.9 91.55 74.9 91.55 58.26 83.23 58.26 83.23 49.94 99.87 49.94 99.87 41.61 108.19 41.61"/>
          <path class="cls-1" d="M8.32,8.32v58.26h58.26V8.32H8.32ZM58.26,58.26H16.65V16.65H58.26V58.26Z"/>
          <rect class="cls-1" x="24.97" y="74.9" width="16.65" height="8.32"/>
          <rect class="cls-1" x="183.1" y="74.9" width="16.65" height="8.32"/>
          <polygon class="cls-1" points="24.97 83.23 24.97 91.55 16.65 91.55 16.65 124.84 8.32 124.84 8.32 83.23 24.97 83.23"/>
          <polygon class="cls-1" points="66.58 91.55 66.58 99.87 58.26 99.87 58.26 108.19 49.94 108.19 49.94 99.87 24.97 99.87 24.97 91.55 49.94 91.55 49.94 83.23 58.26 83.23 58.26 91.55 66.58 91.55"/>
          <rect class="cls-1" x="241.35" y="83.23" width="8.32" height="8.32"/>
          <path class="cls-1" d="M233.03,216.39v-8.33h-16.64v-16.64h8.32v-8.32h-8.32v-16.65h-8.33v-8.32h-16.64v8.32h-16.65v-8.32h16.65v-8.32h-8.32v-8.33h-8.33v-33.29h8.33v-8.32h-8.33v-16.64h-33.29v-8.33h-8.32v8.33h-8.32v-8.33h-8.32v-16.64h-8.33v24.97h-16.64v-8.33h-8.32v-16.64h-8.33v16.64h-16.64v8.33h8.32v8.32h8.32v-8.32h8.33v16.64h-8.33v8.32h8.33v8.33h-16.65v8.32h-16.64v8.32h-8.33v-8.32h-8.32v-8.32h-8.32v24.96h-8.32v-8.32H8.32v16.65h8.33v8.32h8.32v16.64h8.32v-8.32h8.32v8.32h8.33v-8.32h24.96v8.32h24.97v8.33h-24.97v16.64h8.33v-8.32h16.64v8.32h8.32v8.32h8.33v-33.29h16.64v8.33h-8.32v8.32h8.32v8.32h-8.32v8.32h-8.32v8.33h16.64v-8.33h8.32v-8.32h16.65v8.32h8.32v-8.32h8.32v16.65h33.29v8.32h8.33v-8.32h8.32v16.64h8.32v-8.32h8.32v-8.32h-8.32ZM83.23,141.48h-24.97v8.33h24.97v8.32H49.94v-8.32h-8.33v8.32h-8.32v-16.65h24.97v-8.32h16.64v-8.32h8.33v16.64Zm91.54,49.94h-16.64v-8.32h-8.32v8.32h-8.33v-16.65h16.65v8.33h8.32v-8.33h8.32v16.65Zm33.29,16.64h-24.96v-24.96h24.96v24.96Z"/>
          <polygon class="cls-1" points="216.39 74.9 216.39 91.55 208.06 91.55 208.06 99.87 191.42 99.87 191.42 91.55 199.74 91.55 199.74 83.23 208.06 83.23 208.06 74.9 216.39 74.9"/>
          <polygon class="cls-1" points="241.35 91.55 241.35 99.87 224.71 99.87 224.71 108.19 208.06 108.19 208.06 99.87 216.39 99.87 216.39 91.55 224.71 91.55 224.71 83.23 233.03 83.23 233.03 91.55 241.35 91.55"/>
          <rect class="cls-1" x="33.29" y="108.19" width="16.65" height="8.32"/>
          <rect class="cls-1" x="58.26" y="108.19" width="8.32" height="8.32"/>
          <rect class="cls-1" x="183.1" y="108.19" width="8.32" height="8.32"/>
          <polygon class="cls-1" points="241.35 133.16 241.35 141.48 249.68 141.48 249.68 149.81 233.03 149.81 233.03 124.84 224.71 124.84 224.71 149.81 208.06 149.81 208.06 133.16 199.74 133.16 199.74 124.84 191.42 124.84 191.42 116.52 199.74 116.52 199.74 108.19 208.06 108.19 208.06 124.84 216.39 124.84 216.39 116.52 224.71 116.52 224.71 108.19 241.35 108.19 241.35 99.87 249.68 99.87 249.68 133.16 241.35 133.16"/>
          <rect class="cls-1" x="8.32" y="158.13" width="8.32" height="8.32"/>
          <polygon class="cls-1" points="249.68 166.45 249.68 191.42 241.35 191.42 241.35 199.74 224.71 199.74 224.71 191.42 233.03 191.42 233.03 183.1 224.71 183.1 224.71 166.45 216.39 166.45 216.39 158.13 224.71 158.13 224.71 149.81 233.03 149.81 233.03 174.77 241.35 174.77 241.35 166.45 249.68 166.45"/>
          <rect class="cls-1" x="16.65" y="174.77" width="8.32" height="8.32"/>
          <rect class="cls-1" x="33.29" y="174.77" width="8.32" height="8.32"/>
          <rect class="cls-1" x="49.94" y="174.77" width="24.97" height="8.32"/>
          <path class="cls-1" d="M8.32,191.42v58.26h58.26v-58.26H8.32Zm49.94,49.93H16.65v-41.61H58.26v41.61Z"/>
          <rect class="cls-1" x="191.42" y="191.42" width="8.32" height="8.32"/>
          <rect class="cls-1" x="91.55" y="199.74" width="8.32" height="16.65"/>
          <rect class="cls-1" x="24.97" y="208.06" width="24.97" height="24.97"/>
          <rect class="cls-1" x="241.35" y="208.06" width="8.32" height="8.32"/>
          <rect class="cls-1" x="108.19" y="216.39" width="8.32" height="8.32"/>
          <polygon class="cls-1" points="149.81 208.06 149.81 241.35 133.16 241.35 133.16 216.39 141.48 216.39 141.48 208.06 149.81 208.06"/>
          <polygon class="cls-1" points="99.87 224.71 99.87 233.03 74.9 233.03 74.9 216.39 83.23 216.39 83.23 224.71 99.87 224.71"/>
          <rect class="cls-1" x="116.52" y="224.71" width="8.32" height="8.32"/>
          <polygon class="cls-1" points="174.77 216.39 174.77 224.71 166.45 224.71 166.45 233.03 158.13 233.03 158.13 216.39 174.77 216.39"/>
          <rect class="cls-1" x="199.74" y="224.71" width="8.32" height="8.32"/>
          <rect class="cls-1" x="241.35" y="224.71" width="8.32" height="8.32"/>
          <rect class="cls-1" x="108.19" y="233.03" width="8.32" height="8.32"/>
          <rect class="cls-1" x="208.06" y="233.03" width="16.65" height="8.32"/>
          <polygon class="cls-1" points="241.35 233.03 241.35 249.68 224.71 249.68 224.71 241.35 233.03 241.35 233.03 233.03 241.35 233.03"/>
          <rect class="cls-1" x="91.55" y="241.35" width="8.32" height="8.32"/>
          <rect class="cls-1" x="116.52" y="241.35" width="16.65" height="8.32"/>
          <rect class="cls-1" x="158.13" y="241.35" width="8.32" height="8.32"/>
          <polygon class="cls-1" points="191.42 233.03 191.42 249.68 174.77 249.68 174.77 241.35 166.45 241.35 166.45 233.03 174.77 233.03 174.77 224.71 183.1 224.71 183.1 233.03 191.42 233.03"/>
          <rect class="cls-1" x="199.74" y="241.35" width="8.32" height="8.32"/>
        </g>
      </g>
      <path class="cls-3" d="M129.88,113.04l-6.87-9.4v6.84h2.72v6.76h-12.64v-6.76h2.57v-10.5h-2.57v-6.76h9.94l6.85,9.46,6.85-9.46h9.95v6.75h-2.58v10.5h2.58v6.76h-12.65v-6.74h2.73v-6.84l-6.87,9.4Z"/>
      <g>
        <path class="cls-3" d="M93.69,137.75l.88-.88c.37,.48,.9,.74,1.5,.74s.96-.28,.96-.84c0-.46-.22-.71-.71-.8l-.61-.11c-1.22-.23-1.8-.85-1.8-1.96,0-1.29,.78-1.99,2.25-1.99,.96,0,1.65,.3,2.15,.92l-.88,.88c-.33-.41-.74-.6-1.29-.6-.6,0-.87,.22-.87,.73,0,.44,.2,.66,.67,.75l.61,.12c1.31,.27,1.83,.78,1.83,1.91,0,1.41-.83,2.19-2.35,2.19-1.01,0-1.78-.34-2.35-1.05Z"/>
        <path class="cls-3" d="M99.04,136.18c0-1.77,.73-2.63,2.12-2.63,.99,0,1.58,.48,1.82,1.3l-1.08,.48c-.07-.48-.28-.72-.75-.72s-.73,.29-.73,.86v1.4c0,.57,.24,.86,.73,.86s.69-.25,.8-.75l1.04,.46c-.28,.92-.88,1.36-1.84,1.36-1.39,0-2.12-.85-2.12-2.62Z"/>
        <path class="cls-3" d="M107.1,138.68c-.53,0-.8-.29-.85-.87h-.12c-.11,.6-.58,.98-1.26,.98-.9,0-1.37-.55-1.37-1.46,0-1.09,.72-1.57,1.9-1.57h.73v-.39c0-.52-.2-.77-.71-.77-.44,0-.73,.24-.96,.61l-.79-.71c.41-.59,.96-.96,1.87-.96,1.3,0,1.92,.62,1.92,1.83v2.26h.41v1.04h-.77Zm-.97-1.51v-.62h-.6c-.46,0-.69,.2-.69,.57v.18c0,.38,.21,.55,.56,.55,.39,0,.73-.22,.73-.69Z"/>
        <path class="cls-3" d="M108.73,138.68v-5.01h1.34v.85h.15c.16-.53,.5-.96,1.17-.96,.9,0,1.39,.65,1.39,1.72v3.41h-1.34v-3.15c0-.6-.19-.89-.62-.89s-.75,.26-.75,.71v3.33h-1.34Z"/>
        <path class="cls-2" d="M117.45,138.68c-.92,0-1.31-.39-1.31-1.28v-2.69h-.63v-1.04h.31c.35,0,.46-.14,.46-.49v-.87h1.2v1.36h.88v1.04h-.88v2.93h.78v1.04h-.81Z"/>
        <path class="cls-2" d="M118.87,136.18c0-1.77,.74-2.63,2.13-2.63s2.13,.86,2.13,2.63-.74,2.62-2.13,2.62-2.13-.85-2.13-2.62Zm2.87,.7v-1.4c0-.57-.25-.86-.74-.86s-.74,.29-.74,.86v1.4c0,.57,.25,.86,.74,.86s.74-.29,.74-.86Z"/>
        <path class="cls-2" d="M129.33,138.68c-.53,0-.8-.29-.85-.87h-.12c-.11,.6-.58,.98-1.26,.98-.9,0-1.37-.55-1.37-1.46,0-1.09,.72-1.57,1.9-1.57h.73v-.39c0-.52-.2-.77-.71-.77-.44,0-.73,.24-.96,.61l-.79-.71c.41-.59,.96-.96,1.87-.96,1.3,0,1.92,.62,1.92,1.83v2.26h.41v1.04h-.77Zm-.97-1.51v-.62h-.6c-.46,0-.69,.2-.69,.57v.18c0,.38,.21,.55,.56,.55,.39,0,.73-.22,.73-.69Z"/>
        <path class="cls-2" d="M133.71,137.85h-.15c-.11,.53-.6,.95-1.15,.95-1.17,0-1.68-.88-1.68-2.62s.53-2.63,1.68-2.63c.54,0,1.03,.42,1.15,.95h.15v-2.88h1.34v7.07h-1.34v-.83Zm0-.81v-1.73c0-.44-.29-.67-.76-.67s-.82,.32-.82,.9v1.27c0,.57,.33,.9,.82,.9s.76-.23,.76-.67Z"/>
        <path class="cls-2" d="M138.96,137.85h-.15c-.11,.53-.6,.95-1.15,.95-1.17,0-1.68-.88-1.68-2.62s.53-2.63,1.68-2.63c.54,0,1.03,.42,1.15,.95h.15v-2.88h1.34v7.07h-1.34v-.83Zm0-.81v-1.73c0-.44-.29-.67-.76-.67s-.82,.32-.82,.9v1.27c0,.57,.33,.9,.82,.9s.76-.23,.76-.67Z"/>
        <path class="cls-2" d="M143.19,136.18c0-1.77,.73-2.63,2.12-2.63,.99,0,1.58,.48,1.82,1.3l-1.08,.48c-.07-.48-.28-.72-.75-.72s-.73,.29-.73,.86v1.4c0,.57,.24,.86,.73,.86s.69-.25,.8-.75l1.04,.46c-.28,.92-.88,1.36-1.84,1.36-1.39,0-2.12-.85-2.12-2.62Z"/>
        <path class="cls-2" d="M147.95,138.68v-5.01h1.34v1.07h.15c.07-.57,.34-1.07,1.01-1.07h.24v1.36h-.34c-.73,0-1.06,.17-1.06,.74v2.92h-1.34Z"/>
        <path class="cls-2" d="M151.34,132.4v-.21c0-.4,.24-.66,.78-.66s.78,.26,.78,.66v.21c0,.4-.24,.66-.78,.66s-.78-.26-.78-.66Zm.12,1.27h1.34v5.01h-1.34v-5.01Z"/>
        <path class="cls-2" d="M153.56,137.91l.79-.79c.31,.43,.71,.65,1.2,.65,.43,0,.64-.17,.64-.52,0-.27-.12-.41-.43-.47l-.51-.1c-1.08-.2-1.53-.65-1.53-1.53,0-1.05,.64-1.61,1.83-1.61,.79,0,1.38,.25,1.82,.75l-.76,.78c-.28-.32-.65-.51-1.05-.51s-.58,.17-.58,.52c0,.28,.13,.41,.45,.47l.52,.1c1.05,.19,1.49,.62,1.49,1.45,0,1.07-.72,1.68-1.93,1.68-.83,0-1.47-.29-1.97-.89Z"/>
        <path class="cls-2" d="M158.19,132.4v-.21c0-.4,.24-.66,.78-.66s.78,.26,.78,.66v.21c0,.4-.24,.66-.78,.66s-.78-.26-.78-.66Zm.12,1.27h1.34v5.01h-1.34v-5.01Z"/>
        <path class="cls-2" d="M160.41,137.91l.79-.79c.31,.43,.71,.65,1.2,.65,.43,0,.64-.17,.64-.52,0-.27-.12-.41-.43-.47l-.51-.1c-1.08-.2-1.53-.65-1.53-1.53,0-1.05,.64-1.61,1.83-1.61,.79,0,1.38,.25,1.82,.75l-.76,.78c-.28-.32-.65-.51-1.05-.51s-.58,.17-.58,.52c0,.28,.13,.41,.45,.47l.52,.1c1.05,.19,1.49,.62,1.49,1.45,0,1.07-.72,1.68-1.93,1.68-.83,0-1.47-.29-1.97-.89Z"/>
        <path class="cls-2" d="M98.46,149.37l.79-.79c.31,.43,.71,.65,1.2,.65,.43,0,.64-.17,.64-.52,0-.27-.12-.41-.43-.47l-.51-.1c-1.08-.2-1.53-.65-1.53-1.53,0-1.05,.64-1.61,1.83-1.61,.79,0,1.38,.25,1.82,.75l-.76,.78c-.28-.32-.65-.51-1.05-.51s-.58,.17-.58,.52c0,.28,.13,.41,.45,.47l.53,.1c1.05,.19,1.49,.62,1.49,1.45,0,1.07-.72,1.68-1.93,1.68-.83,0-1.47-.29-1.97-.89Z"/>
        <path class="cls-2" d="M105.85,149.29h-.15c-.16,.53-.51,.96-1.18,.96-.89,0-1.38-.65-1.38-1.72v-3.41h1.34v3.15c0,.6,.19,.89,.62,.89s.75-.26,.75-.71v-3.33h1.34v5.01h-1.34v-.85Z"/>
        <path class="cls-2" d="M108.35,145.13h1.34v.83h.15c.11-.53,.6-.95,1.15-.95,1.16,0,1.68,.89,1.68,2.63s-.52,2.62-1.68,2.62c-.54,0-1.03-.42-1.15-.95h-.15v2.74h-1.34v-6.92Zm2.92,3.14v-1.27c0-.57-.32-.9-.82-.9s-.76,.23-.76,.67v1.73c0,.44,.29,.67,.76,.67s.82-.32,.82-.9Z"/>
        <path class="cls-2" d="M113.6,145.13h1.34v.83h.15c.11-.53,.6-.95,1.15-.95,1.16,0,1.68,.89,1.68,2.63s-.52,2.62-1.68,2.62c-.54,0-1.03-.42-1.15-.95h-.15v2.74h-1.34v-6.92Zm2.92,3.14v-1.27c0-.57-.32-.9-.82-.9s-.76,.23-.76,.67v1.73c0,.44,.29,.67,.76,.67s.82-.32,.82-.9Z"/>
        <path class="cls-2" d="M118.56,147.64c0-1.77,.74-2.63,2.13-2.63s2.13,.86,2.13,2.63-.74,2.62-2.13,2.62-2.13-.85-2.13-2.62Zm2.87,.7v-1.4c0-.57-.25-.86-.74-.86s-.74,.29-.74,.86v1.4c0,.57,.25,.86,.74,.86s.74-.29,.74-.86Z"/>
        <path class="cls-2" d="M123.7,150.14v-5.01h1.34v1.07h.15c.07-.57,.34-1.07,1.01-1.07h.24v1.36h-.34c-.73,0-1.06,.17-1.06,.74v2.92h-1.34Z"/>
        <path class="cls-2" d="M128.83,150.14c-.92,0-1.31-.39-1.31-1.28v-2.69h-.63v-1.04h.31c.35,0,.46-.14,.46-.49v-.87h1.2v1.36h.88v1.04h-.88v2.93h.78v1.04h-.81Z"/>
        <path class="cls-2" d="M133.87,150.14c-.93,0-1.3-.41-1.3-1.26v-5.81h1.34v6.03h.56v1.04h-.6Z"/>
        <path class="cls-2" d="M135.1,143.86v-.21c0-.4,.24-.66,.78-.66s.78,.26,.78,.66v.21c0,.4-.24,.66-.78,.66s-.78-.26-.78-.66Zm.12,1.27h1.34v5.01h-1.34v-5.01Z"/>
        <path class="cls-2" d="M137.72,150.14v-5.01h1.34v.85h.15c.16-.53,.5-.96,1.17-.96,.9,0,1.39,.65,1.39,1.72v3.41h-1.34v-3.15c0-.6-.19-.89-.62-.89s-.75,.26-.75,.71v3.33h-1.34Z"/>
        <path class="cls-2" d="M142.59,147.64c0-1.77,.74-2.63,2.13-2.63s2.13,.86,2.13,2.63v.33h-2.87v.32c0,.55,.37,.93,.96,.93,.5,0,.83-.24,1.12-.63l.68,.79c-.4,.54-1.04,.89-1.89,.89-1.38,0-2.26-.87-2.26-2.62Zm1.39-.76v.31h1.47v-.31c0-.57-.25-.86-.74-.86s-.74,.29-.74,.86Z"/>
        <path class="cls-2" d="M147.33,149.37l.79-.79c.31,.43,.71,.65,1.2,.65,.43,0,.64-.17,.64-.52,0-.27-.12-.41-.43-.47l-.51-.1c-1.08-.2-1.53-.65-1.53-1.53,0-1.05,.64-1.61,1.83-1.61,.79,0,1.38,.25,1.82,.75l-.76,.78c-.28-.32-.65-.51-1.05-.51s-.58,.17-.58,.52c0,.28,.13,.41,.45,.47l.52,.1c1.05,.19,1.49,.62,1.49,1.45,0,1.07-.72,1.68-1.93,1.68-.83,0-1.47-.29-1.97-.89Z"/>
        <path class="cls-2" d="M157.37,149.13h-.13c-.12,.62-.54,1.13-1.53,1.13-1.15,0-1.79-.7-1.79-1.87,0-.84,.32-1.34,1.2-1.84-.45-.57-.69-1.09-.69-1.68,0-.96,.65-1.5,1.79-1.5s1.81,.54,1.81,1.47c0,.83-.53,1.45-1.18,1.83l.89,1.18c.14-.42,.22-.9,.24-1.37h1.47v1.1h-.54c-.09,.4-.22,.8-.38,1.13l1.19,1.43h-1.61l-.75-1.01Zm-.36-.31l-1.23-1.58c-.35,.2-.5,.53-.5,.92v.15c0,.52,.3,.84,.89,.84,.36,0,.63-.12,.84-.33Zm-1.31-3.94v.17c0,.22,.15,.57,.51,.91,.37-.21,.56-.54,.56-.92v-.16c0-.36-.22-.52-.53-.52s-.54,.15-.54,.52Z"/>
        <path class="cls-2" d="M98.17,155.31v-.21c0-.4,.24-.66,.78-.66s.78,.26,.78,.66v.21c0,.4-.24,.66-.78,.66s-.78-.26-.78-.66Zm.11,1.27h1.34v5.01h-1.34v-5.01Z"/>
        <path class="cls-2" d="M100.79,161.6v-5.01h1.34v.85h.15c.16-.53,.5-.96,1.17-.96,.9,0,1.39,.65,1.39,1.72v3.41h-1.34v-3.15c0-.6-.19-.89-.62-.89s-.75,.26-.75,.71v3.33h-1.34Z"/>
        <path class="cls-2" d="M106.19,157.62h-.63v-1.04h.63v-.59c0-.99,.44-1.46,1.37-1.46h.88v1.04h-.91v1.01h.91v1.04h-.91v3.97h-1.34v-3.97Z"/>
        <path class="cls-2" d="M108.88,159.1c0-1.77,.74-2.63,2.13-2.63s2.13,.86,2.13,2.63-.74,2.62-2.13,2.62-2.13-.85-2.13-2.62Zm2.87,.7v-1.4c0-.57-.25-.86-.74-.86s-.74,.29-.74,.86v1.4c0,.57,.25,.86,.74,.86s.74-.29,.74-.86Z"/>
        <path class="cls-2" d="M117.59,161.6c-.92,0-1.31-.39-1.31-1.28v-2.69h-.63v-1.04h.31c.35,0,.46-.14,.46-.49v-.87h1.2v1.36h.88v1.04h-.88v2.93h.78v1.04h-.81Z"/>
        <path class="cls-2" d="M119,159.1c0-1.77,.74-2.63,2.13-2.63s2.13,.86,2.13,2.63-.74,2.62-2.13,2.62-2.13-.85-2.13-2.62Zm2.87,.7v-1.4c0-.57-.25-.86-.74-.86s-.74,.29-.74,.86v1.4c0,.57,.25,.86,.74,.86s.74-.29,.74-.86Z"/>
        <path class="cls-2" d="M125.87,159.1c0-1.77,.73-2.63,2.12-2.63,.99,0,1.58,.48,1.82,1.3l-1.08,.48c-.07-.48-.28-.72-.75-.72s-.73,.29-.73,.86v1.4c0,.57,.24,.86,.73,.86s.69-.25,.8-.75l1.04,.46c-.28,.92-.88,1.36-1.84,1.36-1.39,0-2.12-.85-2.12-2.62Z"/>
        <path class="cls-2" d="M130.31,159.1c0-1.77,.74-2.63,2.13-2.63s2.13,.86,2.13,2.63-.74,2.62-2.13,2.62-2.13-.85-2.13-2.62Zm2.87,.7v-1.4c0-.57-.25-.86-.74-.86s-.74,.29-.74,.86v1.4c0,.57,.25,.86,.74,.86s.74-.29,.74-.86Z"/>
        <path class="cls-2" d="M135.45,161.6v-5.01h1.34v.85h.15c.16-.53,.5-.96,1.17-.96,.9,0,1.39,.65,1.39,1.72v3.41h-1.34v-3.15c0-.6-.19-.89-.62-.89s-.75,.26-.75,.71v3.33h-1.34Z"/>
        <path class="cls-2" d="M142.15,161.6c-.92,0-1.31-.39-1.31-1.28v-2.69h-.63v-1.04h.31c.35,0,.46-.14,.46-.49v-.87h1.2v1.36h.88v1.04h-.88v2.93h.78v1.04h-.81Z"/>
        <path class="cls-2" d="M147.18,161.6c-.53,0-.8-.29-.85-.87h-.12c-.1,.6-.58,.98-1.26,.98-.9,0-1.37-.55-1.37-1.46,0-1.09,.72-1.57,1.9-1.57h.73v-.39c0-.52-.2-.77-.71-.77-.44,0-.73,.24-.96,.61l-.79-.71c.41-.59,.96-.96,1.87-.96,1.3,0,1.92,.62,1.92,1.83v2.26h.41v1.04h-.77Zm-.97-1.51v-.62h-.6c-.46,0-.69,.2-.69,.57v.18c0,.38,.21,.55,.56,.55,.39,0,.73-.22,.73-.69Z"/>
        <path class="cls-2" d="M148.51,159.1c0-1.77,.73-2.63,2.12-2.63,.99,0,1.58,.48,1.82,1.3l-1.08,.48c-.07-.48-.28-.72-.75-.72s-.73,.29-.73,.86v1.4c0,.57,.24,.86,.73,.86s.69-.25,.8-.75l1.04,.46c-.28,.92-.88,1.36-1.84,1.36-1.39,0-2.12-.85-2.12-2.62Z"/>
        <path class="cls-2" d="M154.82,161.6c-.92,0-1.31-.39-1.31-1.28v-2.69h-.63v-1.04h.31c.35,0,.46-.14,.46-.49v-.87h1.2v1.36h.88v1.04h-.88v2.93h.78v1.04h-.81Z"/>
        <path class="cls-2" d="M156.14,160.83l.79-.79c.31,.43,.71,.65,1.2,.65,.43,0,.64-.17,.64-.52,0-.27-.12-.41-.43-.47l-.51-.1c-1.08-.2-1.53-.65-1.53-1.53,0-1.05,.64-1.61,1.83-1.61,.79,0,1.38,.25,1.82,.75l-.76,.78c-.28-.32-.65-.51-1.05-.51s-.58,.17-.58,.52c0,.28,.13,.41,.45,.47l.52,.1c1.05,.19,1.49,.62,1.49,1.45,0,1.07-.72,1.68-1.93,1.68-.83,0-1.47-.29-1.97-.89Z"/>
      </g>
    </g>
  </g>
</svg>