<?xml version="1.0" encoding="UTF-8"?>
<svg xmlns="http://www.w3.org/2000/svg" viewBox="0 0 258 258">
  <defs>
    <style>
      .cls-1 {
        fill: #00274c;
      }

      .cls-2 {
        fill: #ffcb05;
      }
    </style>
  </defs>
  <g id="QR_Layer" data-name="QR Layer">
    <g id="QR_v3_lineline" data-name="QR v3 lineline">
      <g id="barcode">
        <rect class="cls-2" width="258" height="258"/>
        <path class="cls-1" d="M8.32,8.32v58.26h58.26V8.32H8.32ZM58.26,58.26H16.65V16.65H58.26V58.26Z"/>
        <polygon class="cls-1" points="133.16 8.32 133.16 16.65 99.87 16.65 99.87 24.97 91.55 24.97 91.55 16.65 83.23 16.65 83.23 8.32 133.16 8.32"/>
        <polygon class="cls-1" points="174.77 8.32 174.77 24.97 158.13 24.97 158.13 41.61 166.45 41.61 166.45 49.94 149.81 49.94 149.81 24.97 133.16 24.97 133.16 16.65 141.48 16.65 141.48 8.32 174.77 8.32"/>
        <path class="cls-1" d="M191.42,8.32v58.26h58.26V8.32h-58.26Zm49.93,49.94h-41.61V16.65h41.61V58.26Z"/>
        <polygon class="cls-1" points="91.55 41.61 91.55 49.94 83.23 49.94 83.23 66.58 74.9 66.58 74.9 16.65 83.23 16.65 83.23 41.61 91.55 41.61"/>
        <rect class="cls-1" x="24.97" y="24.97" width="24.97" height="24.97"/>
        <rect class="cls-1" x="208.06" y="24.97" width="24.97" height="24.97"/>
        <rect class="cls-1" x="91.55" y="33.29" width="8.32" height="8.32"/>
        <polygon class="cls-1" points="133.16 24.97 133.16 33.29 116.52 33.29 116.52 41.61 108.19 41.61 108.19 24.97 133.16 24.97"/>
        <rect class="cls-1" x="133.16" y="33.29" width="8.32" height="8.32"/>
        <rect class="cls-1" x="166.45" y="33.29" width="8.32" height="8.32"/>
        <rect class="cls-1" x="99.87" y="41.61" width="8.32" height="8.32"/>
        <path class="cls-1" d="M224.71,183.1v-49.94h-8.32v-8.32h-8.33v8.32h-16.64v33.29h8.32v8.32h-16.64v-41.61h-8.33v-8.32h8.33v-8.32h-8.33v-49.94h-8.32v-8.32h-8.32v16.64h-16.65v8.33h-8.32V49.94h-16.64v8.32h8.32v16.64h-8.32v8.33h-33.29v8.32h-8.33v8.32h8.33v8.32h-8.33v8.33h8.33v8.32h-24.97v8.32h8.32v8.32h-16.64v-8.32h-8.33v-8.32H24.97v-8.32h-8.32v8.32H8.32v24.97H24.97v-8.33h-8.32v-8.32h16.64v16.65h41.61v-8.33h8.33v8.33h-8.33v8.32h-16.64v8.32h8.32v8.32h16.65v8.33h-8.33v24.96h16.65v-16.64h8.32v-16.65h33.29v8.33h-24.97v16.64h8.33v8.32h8.32v-16.64h16.64v-8.32h8.33v8.32h8.32v-16.65h16.64v24.97h-8.32v-8.32h-8.32v8.32h-8.32v8.32h16.64v8.33h8.32v8.32h8.33v-8.32h24.96v16.64h8.33v-8.32h8.32v-24.97h-8.32v-16.64h8.32Zm-16.65,24.96h-24.96v-24.96h24.96v24.96Zm0-49.93v-16.65h8.33v16.65h-8.33Z"/>
        <rect class="cls-1" x="141.48" y="49.94" width="8.32" height="16.65"/>
        <rect class="cls-1" x="108.19" y="58.26" width="8.32" height="16.65"/>
        <rect class="cls-1" x="174.77" y="58.26" width="8.32" height="8.32"/>
        <polygon class="cls-1" points="99.87 58.26 99.87 74.9 83.23 74.9 83.23 66.58 91.55 66.58 91.55 58.26 99.87 58.26"/>
        <rect class="cls-1" x="24.97" y="74.9" width="8.32" height="8.32"/>
        <rect class="cls-1" x="183.1" y="74.9" width="8.32" height="8.32"/>
        <polygon class="cls-1" points="241.35 74.9 241.35 83.23 233.03 83.23 233.03 99.87 224.71 99.87 224.71 83.23 208.06 83.23 208.06 91.55 199.74 91.55 199.74 99.87 191.42 99.87 191.42 83.23 199.74 83.23 199.74 74.9 241.35 74.9"/>
        <rect class="cls-1" x="41.61" y="83.23" width="8.32" height="8.32"/>
        <polygon class="cls-1" points="83.23 74.9 83.23 83.23 74.9 83.23 74.9 91.55 66.58 91.55 66.58 83.23 49.94 83.23 49.94 74.9 83.23 74.9"/>
        <rect class="cls-1" x="241.35" y="83.23" width="8.32" height="16.65"/>
        <rect class="cls-1" x="33.29" y="91.55" width="8.32" height="8.32"/>
        <rect class="cls-1" x="49.94" y="91.55" width="16.65" height="8.32"/>
        <polygon class="cls-1" points="224.71 99.87 224.71 116.52 216.39 116.52 216.39 108.19 208.06 108.19 208.06 91.55 216.39 91.55 216.39 99.87 224.71 99.87"/>
        <polygon class="cls-1" points="33.29 99.87 33.29 108.19 16.65 108.19 16.65 83.23 24.97 83.23 24.97 99.87 33.29 99.87"/>
        <rect class="cls-1" x="183.1" y="99.87" width="8.32" height="8.32"/>
        <rect class="cls-1" x="233.03" y="99.87" width="8.32" height="8.32"/>
        <rect class="cls-1" x="58.26" y="108.19" width="8.32" height="8.32"/>
        <rect class="cls-1" x="191.42" y="108.19" width="16.65" height="16.65"/>
        <rect class="cls-1" x="41.61" y="116.52" width="16.65" height="8.32"/>
        <rect class="cls-1" x="224.71" y="116.52" width="8.32" height="16.65"/>
        <rect class="cls-1" x="241.35" y="116.52" width="8.32" height="16.65"/>
        <rect class="cls-1" x="241.35" y="149.81" width="8.32" height="16.65"/>
        <polygon class="cls-1" points="49.94 174.77 49.94 183.1 8.32 183.1 8.32 174.77 24.97 174.77 24.97 166.45 8.32 166.45 8.32 158.13 41.61 158.13 41.61 166.45 33.29 166.45 33.29 174.77 49.94 174.77"/>
        <rect class="cls-1" x="49.94" y="166.45" width="8.32" height="8.32"/>
        <rect class="cls-1" x="58.26" y="174.77" width="8.32" height="8.32"/>
        <polygon class="cls-1" points="249.68 174.77 249.68 208.06 233.03 208.06 233.03 199.74 241.35 199.74 241.35 174.77 249.68 174.77"/>
        <path class="cls-1" d="M8.32,191.42v58.26h58.26v-58.26H8.32Zm49.94,49.93H16.65v-41.61H58.26v41.61Z"/>
        <rect class="cls-1" x="141.48" y="191.42" width="8.32" height="8.32"/>
        <rect class="cls-1" x="191.42" y="191.42" width="8.32" height="8.32"/>
        <rect class="cls-1" x="99.87" y="199.74" width="8.32" height="8.32"/>
        <rect class="cls-1" x="24.97" y="208.06" width="24.97" height="24.97"/>
        <rect class="cls-1" x="91.55" y="208.06" width="8.32" height="8.32"/>
        <polygon class="cls-1" points="149.81 208.06 149.81 216.39 141.48 216.39 141.48 224.71 124.84 224.71 124.84 216.39 133.16 216.39 133.16 208.06 149.81 208.06"/>
        <polygon class="cls-1" points="158.13 216.39 158.13 233.03 149.81 233.03 149.81 249.68 141.48 249.68 141.48 224.71 149.81 224.71 149.81 216.39 158.13 216.39"/>
        <polygon class="cls-1" points="249.68 224.71 249.68 233.03 224.71 233.03 224.71 224.71 233.03 224.71 233.03 216.39 241.35 216.39 241.35 224.71 249.68 224.71"/>
        <rect class="cls-1" x="74.9" y="224.71" width="16.65" height="8.32"/>
        <rect class="cls-1" x="108.19" y="224.71" width="8.32" height="16.65"/>
        <rect class="cls-1" x="183.1" y="224.71" width="8.32" height="16.65"/>
        <rect class="cls-1" x="91.55" y="233.03" width="8.32" height="16.65"/>
        <rect class="cls-1" x="158.13" y="233.03" width="8.32" height="8.32"/>
        <rect class="cls-1" x="216.39" y="233.03" width="8.32" height="16.65"/>
        <rect class="cls-1" x="116.52" y="241.35" width="16.65" height="8.32"/>
        <rect class="cls-1" x="166.45" y="241.35" width="16.65" height="8.32"/>
        <rect class="cls-1" x="191.42" y="241.35" width="16.65" height="8.32"/>
        <rect class="cls-1" x="241.35" y="241.35" width="8.32" height="8.32"/>
      </g>
    </g>
  </g>
  <g id="Github_release_link" data-name="Github release link">
    <g>
      <path class="cls-2" d="M105.02,106.23l2.21-2.21c.94,1.2,2.26,1.85,3.77,1.85s2.4-.7,2.4-2.11c0-1.15-.55-1.78-1.78-2.02l-1.54-.29c-3.07-.58-4.51-2.14-4.51-4.92,0-3.24,1.97-4.99,5.66-4.99,2.4,0,4.15,.74,5.4,2.3l-2.21,2.21c-.84-1.03-1.85-1.51-3.24-1.51-1.51,0-2.18,.55-2.18,1.82,0,1.1,.5,1.66,1.68,1.9l1.54,.31c3.29,.67,4.61,1.97,4.61,4.8,0,3.55-2.09,5.5-5.9,5.5-2.54,0-4.46-.86-5.9-2.64Z"/>
      <path class="cls-2" d="M127.51,108.59c-1.32,0-2.02-.72-2.14-2.18h-.31c-.26,1.51-1.46,2.47-3.17,2.47-2.26,0-3.43-1.39-3.43-3.67,0-2.74,1.8-3.94,4.78-3.94h1.82v-.98c0-1.3-.5-1.94-1.78-1.94-1.1,0-1.82,.6-2.4,1.54l-1.99-1.78c1.03-1.49,2.4-2.4,4.7-2.4,3.26,0,4.82,1.56,4.82,4.58v5.69h1.03v2.62h-1.94Zm-2.45-3.79v-1.56h-1.51c-1.15,0-1.73,.5-1.73,1.44v.46c0,.96,.53,1.39,1.42,1.39,.98,0,1.82-.55,1.82-1.73Z"/>
      <path class="cls-2" d="M133.56,108.59l-3.62-12.6h3.41l1.75,6.86,.5,2.9h.38l.5-2.9,1.75-6.86h3.26l-3.62,12.6h-4.32Z"/>
      <path class="cls-2" d="M142.15,102.3c0-4.44,1.85-6.6,5.35-6.6s5.35,2.16,5.35,6.6v.82h-7.2v.79c0,1.39,.94,2.33,2.42,2.33,1.25,0,2.09-.6,2.81-1.58l1.7,1.99c-1.01,1.37-2.62,2.23-4.75,2.23-3.46,0-5.69-2.18-5.69-6.58Zm3.5-1.92v.77h3.7v-.77c0-1.44-.62-2.16-1.85-2.16s-1.85,.72-1.85,2.16Z"/>
      <path class="cls-2" d="M101.38,129.13c0-6.26,2.71-8.78,6.72-8.78,3.02,0,4.58,1.27,5.71,3.91l-2.98,1.54c-.36-1.44-.91-2.42-2.74-2.42s-3.07,1.15-3.07,3.46v4.37c0,2.3,1.18,3.46,3.07,3.46s2.5-1.15,2.93-2.59l2.83,1.63c-1.15,2.52-2.74,3.98-5.76,3.98-4.01,0-6.72-2.28-6.72-8.54Z"/>
      <path class="cls-2" d="M115.92,137.39v-12.6h3.36v2.69h.38c.17-1.44,.86-2.69,2.54-2.69h.6v3.41h-.86c-1.82,0-2.66,.43-2.66,1.85v7.34h-3.36Z"/>
      <path class="cls-2" d="M124.44,121.59v-.53c0-1.01,.6-1.66,1.97-1.66s1.97,.65,1.97,1.66v.53c0,1.01-.6,1.66-1.97,1.66s-1.97-.65-1.97-1.66Zm.29,3.19h3.36v12.6h-3.36v-12.6Z"/>
      <path class="cls-2" d="M130.03,135.44l1.99-1.99c.77,1.08,1.78,1.63,3.02,1.63,1.08,0,1.61-.43,1.61-1.3,0-.67-.31-1.03-1.08-1.18l-1.27-.24c-2.71-.5-3.84-1.63-3.84-3.84,0-2.64,1.61-4.03,4.61-4.03,1.99,0,3.46,.62,4.58,1.9l-1.92,1.97c-.7-.82-1.63-1.27-2.64-1.27s-1.46,.43-1.46,1.3c0,.7,.34,1.03,1.13,1.18l1.32,.24c2.64,.48,3.74,1.56,3.74,3.65,0,2.69-1.8,4.22-4.85,4.22-2.09,0-3.7-.72-4.94-2.23Z"/>
      <path class="cls-2" d="M141.65,121.59v-.53c0-1.01,.6-1.66,1.97-1.66s1.97,.65,1.97,1.66v.53c0,1.01-.6,1.66-1.97,1.66s-1.97-.65-1.97-1.66Zm.29,3.19h3.36v12.6h-3.36v-12.6Z"/>
      <path class="cls-2" d="M147.24,135.44l1.99-1.99c.77,1.08,1.78,1.63,3.02,1.63,1.08,0,1.61-.43,1.61-1.3,0-.67-.31-1.03-1.08-1.18l-1.27-.24c-2.71-.5-3.84-1.63-3.84-3.84,0-2.64,1.61-4.03,4.61-4.03,1.99,0,3.46,.62,4.58,1.9l-1.92,1.97c-.7-.82-1.63-1.27-2.64-1.27s-1.46,.43-1.46,1.3c0,.7,.34,1.03,1.13,1.18l1.32,.24c2.64,.48,3.74,1.56,3.74,3.65,0,2.69-1.8,4.22-4.85,4.22-2.09,0-3.7-.72-4.94-2.23Z"/>
      <path class="cls-2" d="M92.54,166.19v-16.75h3.43v13.75h5.69v3h-9.12Z"/>
      <path class="cls-2" d="M103.61,150.39v-.53c0-1.01,.6-1.66,1.97-1.66s1.97,.65,1.97,1.66v.53c0,1.01-.6,1.66-1.97,1.66s-1.97-.65-1.97-1.66Zm.29,3.19h3.36v12.6h-3.36v-12.6Z"/>
      <path class="cls-2" d="M110.78,156.2h-1.58v-2.62h1.58v-1.49c0-2.5,1.1-3.67,3.43-3.67h2.21v2.62h-2.28v2.54h2.28v2.62h-2.28v9.99h-3.36v-9.99Z"/>
      <path class="cls-2" d="M117.55,159.9c0-4.44,1.85-6.6,5.35-6.6s5.35,2.16,5.35,6.6v.82h-7.2v.79c0,1.39,.94,2.33,2.42,2.33,1.25,0,2.09-.6,2.81-1.58l1.7,1.99c-1.01,1.37-2.62,2.23-4.75,2.23-3.46,0-5.69-2.18-5.69-6.58Zm3.5-1.92v.77h3.7v-.77c0-1.44-.62-2.16-1.85-2.16s-1.85,.72-1.85,2.16Z"/>
      <path class="cls-2" d="M133.73,166.19c-2.33,0-3.26-1.03-3.26-3.17v-14.59h3.36v15.15h1.42v2.62h-1.51Z"/>
      <path class="cls-2" d="M136.82,150.39v-.53c0-1.01,.6-1.66,1.97-1.66s1.97,.65,1.97,1.66v.53c0,1.01-.6,1.66-1.97,1.66s-1.97-.65-1.97-1.66Zm.29,3.19h3.36v12.6h-3.36v-12.6Z"/>
      <path class="cls-2" d="M143.4,166.19v-12.6h3.36v2.14h.38c.41-1.32,1.25-2.42,2.93-2.42,2.26,0,3.5,1.63,3.5,4.32v8.57h-3.36v-7.92c0-1.51-.48-2.23-1.56-2.23s-1.9,.65-1.9,1.78v8.38h-3.36Z"/>
      <path class="cls-2" d="M155.64,159.9c0-4.44,1.85-6.6,5.35-6.6s5.35,2.16,5.35,6.6v.82h-7.2v.79c0,1.39,.94,2.33,2.42,2.33,1.25,0,2.09-.6,2.81-1.58l1.7,1.99c-1.01,1.37-2.62,2.23-4.75,2.23-3.46,0-5.69-2.18-5.69-6.58Zm3.5-1.92v.77h3.7v-.77c0-1.44-.62-2.16-1.85-2.16s-1.85,.72-1.85,2.16Z"/>
    </g>
  </g>
</svg>
